# xmcd
#
# Track frame offsets: 
#        150
#        20193
#        42372
#        63282
#        83382
#        102960
#        121785
#        149198
#        165697
#        179888
#        201786
#
# Disc length: 3162 seconds
#
# Revision: 1
# Processed by: cddbd v1.5.2PL0 Copyright (c) Steve Scherf et al.
# Submitted via: ExactAudioCopy v0.99pb5
#
DISCID=9d0c580b
DTITLE=Korpi Ensemble - Trails
DYEAR=2006
DGENRE=Pop
TTITLE0=A Moment of Love
TTITLE1=Echoes
TTITLE2=Seasons
TTITLE3=Witness
TTITLE4=Dancing
TTITLE5=I Wish I Knew
TTITLE6=Breaking Away
TTITLE7=Still Loving You
TTITLE8=Gratitude
TTITLE9=Uncertain
TTITLE10=Impro
EXTD=
EXTT0=
EXTT1=
EXTT2=
EXTT3=
EXTT4=
EXTT5=
EXTT6=
EXTT7=
EXTT8=
EXTT9=
EXTT10=
PLAYORDER=
